<svg xmlns="http://www.w3.org/2000/svg" xmlns:xlink="http://www.w3.org/1999/xlink" width="2000" zoomAndPan="magnify" viewBox="0 0 1500 449.999984" height="600" preserveAspectRatio="xMidYMid meet" version="1.0"><defs><g/><clipPath id="cad4bfbe92"><path d="M 218 22.5 L 262 22.5 L 262 66 L 218 66 Z M 218 22.5 " clip-rule="nonzero"/></clipPath><clipPath id="44d62ace12"><path d="M 417 160 L 460.542969 160 L 460.542969 204 L 417 204 Z M 417 160 " clip-rule="nonzero"/></clipPath><clipPath id="83b27a24ab"><path d="M 417 246 L 460.542969 246 L 460.542969 290 L 417 290 Z M 417 246 " clip-rule="nonzero"/></clipPath><clipPath id="96f94b4552"><path d="M 218 384 L 262 384 L 262 427.5 L 218 427.5 Z M 218 384 " clip-rule="nonzero"/></clipPath><clipPath id="86f1e6d17a"><path d="M 60.792969 160 L 104 160 L 104 204 L 60.792969 204 Z M 60.792969 160 " clip-rule="nonzero"/></clipPath><clipPath id="814b517563"><path d="M 60.792969 246 L 104 246 L 104 290 L 60.792969 290 Z M 60.792969 246 " clip-rule="nonzero"/></clipPath></defs><path fill="#ffffff" d="M 326.273438 302.9375 L 194.835938 302.9375 C 181.3125 302.9375 170.164062 291.785156 170.164062 278.261719 L 170.164062 171.738281 C 170.164062 157.976562 181.3125 146.828125 194.835938 146.828125 L 326.273438 146.828125 C 340.03125 146.828125 351.183594 157.976562 351.183594 171.738281 L 351.183594 278.261719 C 351.183594 291.785156 340.03125 302.9375 326.273438 302.9375 Z M 199.34375 253.589844 C 198.871094 253.589844 198.394531 253.589844 197.921875 253.351562 C 195.785156 252.640625 194.835938 250.265625 195.785156 248.132812 L 204.328125 226.78125 L 204.328125 226.542969 L 219.746094 188.109375 C 219.746094 188.109375 219.746094 187.871094 219.746094 187.871094 C 219.984375 187.394531 220.222656 186.921875 220.695312 186.683594 C 220.933594 186.210938 221.410156 185.972656 221.882812 185.734375 C 221.882812 185.734375 221.882812 185.734375 222.121094 185.734375 C 222.59375 185.5 222.832031 185.5 223.304688 185.5 C 223.78125 185.5 224.253906 185.5 224.730469 185.734375 C 224.730469 185.734375 224.96875 185.734375 224.96875 185.734375 C 225.441406 185.972656 225.917969 186.210938 226.152344 186.683594 C 226.628906 186.921875 226.863281 187.394531 227.101562 187.871094 C 227.101562 187.871094 227.101562 188.109375 227.101562 188.109375 L 242.523438 226.542969 L 242.523438 226.78125 L 251.0625 248.132812 C 251.777344 250.265625 250.828125 252.640625 248.929688 253.351562 C 246.792969 254.0625 244.421875 253.113281 243.710938 251.214844 L 236.117188 232.234375 L 210.730469 232.234375 L 203.140625 251.214844 C 202.429688 252.640625 201.003906 253.589844 199.34375 253.589844 Z M 289.734375 253.824219 L 268.621094 253.824219 C 266.484375 253.824219 264.824219 252.164062 264.824219 250.03125 C 264.824219 247.65625 266.484375 245.996094 268.621094 245.996094 L 285.703125 245.996094 L 285.703125 193.089844 L 268.621094 193.089844 C 266.484375 193.089844 264.824219 191.429688 264.824219 189.292969 C 264.824219 186.921875 266.484375 185.261719 268.621094 185.261719 L 310.613281 185.261719 C 312.75 185.261719 314.648438 186.921875 314.648438 189.292969 C 314.648438 191.429688 312.75 193.089844 310.613281 193.089844 L 293.53125 193.089844 L 293.53125 245.996094 L 310.613281 245.996094 C 312.75 245.996094 314.648438 247.65625 314.648438 250.03125 C 314.648438 252.164062 312.75 253.824219 310.613281 253.824219 Z M 233.035156 224.167969 L 223.304688 200.207031 L 213.816406 224.167969 Z M 233.035156 224.167969 " fill-opacity="1" fill-rule="evenodd"/><path fill="#ffffff" d="M 239.675781 154.894531 C 237.542969 154.894531 235.644531 152.996094 235.644531 150.859375 L 235.644531 61.417969 C 235.644531 59.28125 237.542969 57.386719 239.675781 57.386719 C 241.8125 57.386719 243.472656 59.28125 243.472656 61.417969 L 243.472656 150.859375 C 243.472656 152.996094 241.8125 154.894531 239.675781 154.894531 Z M 239.675781 154.894531 " fill-opacity="1" fill-rule="evenodd"/><g clip-path="url(#cad4bfbe92)"><path fill="#ffffff" d="M 239.675781 65.453125 C 227.8125 65.453125 218.085938 55.722656 218.085938 43.863281 C 218.085938 32.238281 227.8125 22.507812 239.675781 22.507812 C 251.539062 22.507812 261.027344 32.238281 261.027344 43.863281 C 261.027344 55.722656 251.539062 65.453125 239.675781 65.453125 Z M 239.675781 65.453125 " fill-opacity="1" fill-rule="evenodd"/></g><path fill="#ffffff" d="M 281.667969 154.894531 C 279.535156 154.894531 277.636719 152.996094 277.636719 150.859375 L 277.636719 113.851562 C 277.636719 111.714844 279.535156 109.816406 281.667969 109.816406 C 283.804688 109.816406 285.703125 111.714844 285.703125 113.851562 L 285.703125 150.859375 C 285.703125 152.996094 283.804688 154.894531 281.667969 154.894531 Z M 281.667969 154.894531 " fill-opacity="1" fill-rule="evenodd"/><path fill="#ffffff" d="M 281.667969 117.882812 C 269.808594 117.882812 260.316406 108.15625 260.316406 96.292969 C 260.316406 84.667969 269.808594 74.941406 281.667969 74.941406 C 293.53125 74.941406 303.023438 84.667969 303.023438 96.292969 C 303.023438 108.15625 293.53125 117.882812 281.667969 117.882812 Z M 281.667969 117.882812 " fill-opacity="1" fill-rule="evenodd"/><path fill="#ffffff" d="M 323.660156 154.894531 C 321.527344 154.894531 319.628906 152.996094 319.628906 150.859375 L 319.628906 92.972656 C 319.628906 81.347656 329.117188 71.855469 340.742188 71.855469 L 365.890625 71.855469 C 368.027344 71.855469 369.925781 73.753906 369.925781 75.890625 C 369.925781 78.023438 368.027344 79.921875 365.890625 79.921875 L 340.742188 79.921875 C 333.625 79.921875 327.695312 85.617188 327.695312 92.972656 L 327.695312 150.859375 C 327.695312 152.996094 325.796875 154.894531 323.660156 154.894531 Z M 323.660156 154.894531 " fill-opacity="1" fill-rule="evenodd"/><path fill="#ffffff" d="M 383.449219 97.242188 C 371.585938 97.242188 361.859375 87.753906 361.859375 75.890625 C 361.859375 64.027344 371.585938 54.539062 383.449219 54.539062 C 395.3125 54.539062 404.800781 64.027344 404.800781 75.890625 C 404.800781 87.753906 395.3125 97.242188 383.449219 97.242188 Z M 383.449219 97.242188 " fill-opacity="1" fill-rule="evenodd"/><path fill="#ffffff" d="M 197.683594 154.894531 C 195.3125 154.894531 193.652344 152.996094 193.652344 150.859375 L 193.652344 92.972656 C 193.652344 85.617188 187.71875 79.921875 180.601562 79.921875 L 155.453125 79.921875 C 153.082031 79.921875 151.421875 78.023438 151.421875 75.890625 C 151.421875 73.753906 153.082031 71.855469 155.453125 71.855469 L 180.601562 71.855469 C 192.226562 71.855469 201.480469 81.347656 201.480469 92.972656 L 201.480469 150.859375 C 201.480469 152.996094 199.820312 154.894531 197.683594 154.894531 Z M 197.683594 154.894531 " fill-opacity="1" fill-rule="evenodd"/><path fill="#ffffff" d="M 137.898438 97.242188 C 126.035156 97.242188 116.546875 87.753906 116.546875 75.890625 C 116.546875 64.027344 126.035156 54.539062 137.898438 54.539062 C 149.761719 54.539062 159.25 64.027344 159.25 75.890625 C 159.25 87.753906 149.761719 97.242188 137.898438 97.242188 Z M 137.898438 97.242188 " fill-opacity="1" fill-rule="evenodd"/><path fill="#ffffff" d="M 421.644531 185.972656 L 347.148438 185.972656 C 345.015625 185.972656 343.117188 184.074219 343.117188 181.941406 C 343.117188 179.804688 345.015625 178.144531 347.148438 178.144531 L 421.644531 178.144531 C 423.78125 178.144531 425.441406 179.804688 425.441406 181.941406 C 425.441406 184.074219 423.78125 185.972656 421.644531 185.972656 Z M 421.644531 185.972656 " fill-opacity="1" fill-rule="evenodd"/><g clip-path="url(#44d62ace12)"><path fill="#ffffff" d="M 438.964844 203.527344 C 427.339844 203.527344 417.613281 193.800781 417.613281 181.941406 C 417.613281 170.078125 427.339844 160.585938 438.964844 160.585938 C 450.828125 160.585938 460.554688 170.078125 460.554688 181.941406 C 460.554688 193.800781 450.828125 203.527344 438.964844 203.527344 Z M 438.964844 203.527344 " fill-opacity="1" fill-rule="evenodd"/></g><path fill="#ffffff" d="M 369.449219 228.914062 L 347.148438 228.914062 C 345.015625 228.914062 343.117188 227.253906 343.117188 224.882812 C 343.117188 222.746094 345.015625 221.085938 347.148438 221.085938 L 369.449219 221.085938 C 371.585938 221.085938 373.246094 222.746094 373.246094 224.882812 C 373.246094 227.253906 371.585938 228.914062 369.449219 228.914062 Z M 369.449219 228.914062 " fill-opacity="1" fill-rule="evenodd"/><path fill="#ffffff" d="M 386.769531 246.472656 C 375.144531 246.472656 365.417969 236.742188 365.417969 224.882812 C 365.417969 213.257812 375.144531 203.527344 386.769531 203.527344 C 398.632812 203.527344 408.359375 213.257812 408.359375 224.882812 C 408.359375 236.742188 398.632812 246.472656 386.769531 246.472656 Z M 386.769531 246.472656 " fill-opacity="1" fill-rule="evenodd"/><path fill="#ffffff" d="M 421.644531 271.617188 L 347.148438 271.617188 C 345.015625 271.617188 343.117188 269.957031 343.117188 267.585938 C 343.117188 265.449219 345.015625 263.789062 347.148438 263.789062 L 421.644531 263.789062 C 423.78125 263.789062 425.441406 265.449219 425.441406 267.585938 C 425.441406 269.957031 423.78125 271.617188 421.644531 271.617188 Z M 421.644531 271.617188 " fill-opacity="1" fill-rule="evenodd"/><g clip-path="url(#83b27a24ab)"><path fill="#ffffff" d="M 438.964844 289.175781 C 427.339844 289.175781 417.613281 279.449219 417.613281 267.585938 C 417.613281 255.960938 427.339844 246.234375 438.964844 246.234375 C 450.828125 246.234375 460.554688 255.960938 460.554688 267.585938 C 460.554688 279.449219 450.828125 289.175781 438.964844 289.175781 Z M 438.964844 289.175781 " fill-opacity="1" fill-rule="evenodd"/></g><path fill="#ffffff" d="M 239.675781 392.378906 C 237.542969 392.378906 235.644531 390.71875 235.644531 388.582031 L 235.644531 299.140625 C 235.644531 296.765625 237.542969 295.105469 239.675781 295.105469 C 241.8125 295.105469 243.472656 296.765625 243.472656 299.140625 L 243.472656 388.582031 C 243.472656 390.71875 241.8125 392.378906 239.675781 392.378906 Z M 239.675781 392.378906 " fill-opacity="1" fill-rule="evenodd"/><g clip-path="url(#96f94b4552)"><path fill="#ffffff" d="M 239.675781 427.492188 C 227.8125 427.492188 218.085938 417.761719 218.085938 405.902344 C 218.085938 394.039062 227.8125 384.546875 239.675781 384.546875 C 251.539062 384.546875 261.027344 394.039062 261.027344 405.902344 C 261.027344 417.761719 251.539062 427.492188 239.675781 427.492188 Z M 239.675781 427.492188 " fill-opacity="1" fill-rule="evenodd"/></g><path fill="#ffffff" d="M 281.667969 339.945312 C 279.535156 339.945312 277.636719 338.285156 277.636719 336.148438 L 277.636719 299.140625 C 277.636719 296.765625 279.535156 295.105469 281.667969 295.105469 C 283.804688 295.105469 285.703125 296.765625 285.703125 299.140625 L 285.703125 336.148438 C 285.703125 338.285156 283.804688 339.945312 281.667969 339.945312 Z M 281.667969 339.945312 " fill-opacity="1" fill-rule="evenodd"/><path fill="#ffffff" d="M 281.667969 375.058594 C 269.808594 375.058594 260.316406 365.332031 260.316406 353.46875 C 260.316406 341.605469 269.808594 332.117188 281.667969 332.117188 C 293.53125 332.117188 303.023438 341.605469 303.023438 353.46875 C 303.023438 365.332031 293.53125 375.058594 281.667969 375.058594 Z M 281.667969 375.058594 " fill-opacity="1" fill-rule="evenodd"/><path fill="#ffffff" d="M 365.890625 377.90625 L 340.742188 377.90625 C 329.117188 377.90625 319.628906 368.652344 319.628906 357.027344 L 319.628906 299.140625 C 319.628906 296.765625 321.527344 295.105469 323.660156 295.105469 C 325.796875 295.105469 327.695312 296.765625 327.695312 299.140625 L 327.695312 357.027344 C 327.695312 364.144531 333.625 370.078125 340.742188 370.078125 L 365.890625 370.078125 C 368.027344 370.078125 369.925781 371.738281 369.925781 374.109375 C 369.925781 376.246094 368.027344 377.90625 365.890625 377.90625 Z M 365.890625 377.90625 " fill-opacity="1" fill-rule="evenodd"/><path fill="#ffffff" d="M 383.449219 395.460938 C 371.585938 395.460938 361.859375 385.734375 361.859375 374.109375 C 361.859375 362.246094 371.585938 352.519531 383.449219 352.519531 C 395.3125 352.519531 404.800781 362.246094 404.800781 374.109375 C 404.800781 385.734375 395.3125 395.460938 383.449219 395.460938 Z M 383.449219 395.460938 " fill-opacity="1" fill-rule="evenodd"/><path fill="#ffffff" d="M 180.601562 377.90625 L 155.453125 377.90625 C 153.082031 377.90625 151.421875 376.246094 151.421875 374.109375 C 151.421875 371.738281 153.082031 370.078125 155.453125 370.078125 L 180.601562 370.078125 C 187.71875 370.078125 193.652344 364.144531 193.652344 357.027344 L 193.652344 299.140625 C 193.652344 296.765625 195.3125 295.105469 197.683594 295.105469 C 199.820312 295.105469 201.480469 296.765625 201.480469 299.140625 L 201.480469 357.027344 C 201.480469 368.652344 192.226562 377.90625 180.601562 377.90625 Z M 180.601562 377.90625 " fill-opacity="1" fill-rule="evenodd"/><path fill="#ffffff" d="M 137.898438 395.460938 C 126.035156 395.460938 116.546875 385.734375 116.546875 374.109375 C 116.546875 362.246094 126.035156 352.519531 137.898438 352.519531 C 149.761719 352.519531 159.25 362.246094 159.25 374.109375 C 159.25 385.734375 149.761719 395.460938 137.898438 395.460938 Z M 137.898438 395.460938 " fill-opacity="1" fill-rule="evenodd"/><path fill="#ffffff" d="M 174.195312 185.972656 L 99.699219 185.972656 C 97.566406 185.972656 95.667969 184.3125 95.667969 182.175781 C 95.667969 179.804688 97.566406 178.144531 99.699219 178.144531 L 174.195312 178.144531 C 176.332031 178.144531 177.992188 179.804688 177.992188 182.175781 C 177.992188 184.3125 176.332031 185.972656 174.195312 185.972656 Z M 174.195312 185.972656 " fill-opacity="1" fill-rule="evenodd"/><g clip-path="url(#86f1e6d17a)"><path fill="#ffffff" d="M 82.144531 203.527344 C 70.519531 203.527344 60.792969 194.039062 60.792969 182.175781 C 60.792969 170.316406 70.519531 160.585938 82.144531 160.585938 C 94.007812 160.585938 103.734375 170.316406 103.734375 182.175781 C 103.734375 194.039062 94.007812 203.527344 82.144531 203.527344 Z M 82.144531 203.527344 " fill-opacity="1" fill-rule="evenodd"/></g><path fill="#ffffff" d="M 174.195312 228.914062 L 151.894531 228.914062 C 149.761719 228.914062 147.863281 227.253906 147.863281 225.117188 C 147.863281 222.984375 149.761719 221.085938 151.894531 221.085938 L 174.195312 221.085938 C 176.332031 221.085938 177.992188 222.984375 177.992188 225.117188 C 177.992188 227.253906 176.332031 228.914062 174.195312 228.914062 Z M 174.195312 228.914062 " fill-opacity="1" fill-rule="evenodd"/><path fill="#ffffff" d="M 134.339844 246.472656 C 122.476562 246.472656 112.988281 236.980469 112.988281 225.117188 C 112.988281 213.257812 122.476562 203.527344 134.339844 203.527344 C 146.199219 203.527344 155.929688 213.257812 155.929688 225.117188 C 155.929688 236.980469 146.199219 246.472656 134.339844 246.472656 Z M 134.339844 246.472656 " fill-opacity="1" fill-rule="evenodd"/><path fill="#ffffff" d="M 174.195312 271.855469 L 99.699219 271.855469 C 97.566406 271.855469 95.667969 269.957031 95.667969 267.824219 C 95.667969 265.6875 97.566406 263.789062 99.699219 263.789062 L 174.195312 263.789062 C 176.332031 263.789062 177.992188 265.6875 177.992188 267.824219 C 177.992188 269.957031 176.332031 271.855469 174.195312 271.855469 Z M 174.195312 271.855469 " fill-opacity="1" fill-rule="evenodd"/><g clip-path="url(#814b517563)"><path fill="#ffffff" d="M 82.144531 289.175781 C 70.519531 289.175781 60.792969 279.683594 60.792969 267.824219 C 60.792969 255.960938 70.519531 246.472656 82.144531 246.472656 C 94.007812 246.472656 103.734375 255.960938 103.734375 267.824219 C 103.734375 279.683594 94.007812 289.175781 82.144531 289.175781 Z M 82.144531 289.175781 " fill-opacity="1" fill-rule="evenodd"/></g><g fill="#ffffff" fill-opacity="1"><g transform="translate(559.224519, 191.307881)"><g><path d="M 59.453125 -20.109375 L 17.515625 -20.109375 L 8.5 0 L 0.21875 0 L 34.609375 -75.25 L 42.46875 -75.25 L 76.859375 0 L 68.484375 0 Z M 56.546875 -26.546875 L 38.484375 -66.96875 L 20.421875 -26.546875 Z M 56.546875 -26.546875 "/></g></g></g><g fill="#ffffff" fill-opacity="1"><g transform="translate(636.297377, 191.307881)"><g><path d="M 12.25 -75.25 L 20.203125 -75.25 L 20.203125 0 L 12.25 0 Z M 12.25 -75.25 "/></g></g></g><g fill="#ffffff" fill-opacity="1"><g transform="translate(668.760419, 191.307881)"><g/></g></g><g fill="#ffffff" fill-opacity="1"><g transform="translate(696.92372, 191.307881)"><g><path d="M 26.875 -68.375 L 0.4375 -68.375 L 0.4375 -75.25 L 61.28125 -75.25 L 61.28125 -68.375 L 34.828125 -68.375 L 34.828125 0 L 26.875 0 Z M 26.875 -68.375 "/></g></g></g><g fill="#ffffff" fill-opacity="1"><g transform="translate(758.624991, 191.307881)"><g><path d="M 59.875 -25.90625 L 12.578125 -25.90625 C 13.003906 -20.03125 15.257812 -15.28125 19.34375 -11.65625 C 23.4375 -8.039062 28.597656 -6.234375 34.828125 -6.234375 C 38.335938 -6.234375 41.5625 -6.859375 44.5 -8.109375 C 47.4375 -9.367188 49.984375 -11.21875 52.140625 -13.65625 L 56.4375 -8.703125 C 53.925781 -5.691406 50.789062 -3.398438 47.03125 -1.828125 C 43.269531 -0.253906 39.128906 0.53125 34.609375 0.53125 C 28.804688 0.53125 23.664062 -0.703125 19.1875 -3.171875 C 14.707031 -5.640625 11.210938 -9.0625 8.703125 -13.4375 C 6.191406 -17.8125 4.9375 -22.753906 4.9375 -28.265625 C 4.9375 -33.785156 6.132812 -38.734375 8.53125 -43.109375 C 10.9375 -47.484375 14.234375 -50.882812 18.421875 -53.3125 C 22.617188 -55.75 27.335938 -56.96875 32.578125 -56.96875 C 37.804688 -56.96875 42.5 -55.75 46.65625 -53.3125 C 50.8125 -50.882812 54.070312 -47.5 56.4375 -43.15625 C 58.800781 -38.820312 59.984375 -33.859375 59.984375 -28.265625 Z M 32.578125 -50.421875 C 27.128906 -50.421875 22.554688 -48.679688 18.859375 -45.203125 C 15.171875 -41.722656 13.078125 -37.191406 12.578125 -31.609375 L 52.671875 -31.609375 C 52.171875 -37.191406 50.070312 -41.722656 46.375 -45.203125 C 42.6875 -48.679688 38.085938 -50.421875 32.578125 -50.421875 Z M 32.578125 -50.421875 "/></g></g></g><g fill="#ffffff" fill-opacity="1"><g transform="translate(823.551094, 191.307881)"><g><path d="M 46.65625 0 L 28.703125 -23.65625 L 10.640625 0 L 2.046875 0 L 24.40625 -29.03125 L 3.125 -56.546875 L 11.71875 -56.546875 L 28.703125 -34.40625 L 45.6875 -56.546875 L 54.078125 -56.546875 L 32.78125 -29.03125 L 55.359375 0 Z M 46.65625 0 "/></g></g></g><g fill="#ffffff" fill-opacity="1"><g transform="translate(880.952634, 191.307881)"><g><path d="M 40.421875 -3.4375 C 38.984375 -2.144531 37.207031 -1.160156 35.09375 -0.484375 C 32.976562 0.191406 30.773438 0.53125 28.484375 0.53125 C 23.179688 0.53125 19.097656 -0.898438 16.234375 -3.765625 C 13.367188 -6.628906 11.9375 -10.675781 11.9375 -15.90625 L 11.9375 -50.09375 L 1.828125 -50.09375 L 1.828125 -56.546875 L 11.9375 -56.546875 L 11.9375 -68.90625 L 19.5625 -68.90625 L 19.5625 -56.546875 L 36.765625 -56.546875 L 36.765625 -50.09375 L 19.5625 -50.09375 L 19.5625 -16.34375 C 19.5625 -12.96875 20.40625 -10.398438 22.09375 -8.640625 C 23.78125 -6.890625 26.195312 -6.015625 29.34375 -6.015625 C 30.925781 -6.015625 32.453125 -6.265625 33.921875 -6.765625 C 35.390625 -7.273438 36.660156 -7.992188 37.734375 -8.921875 Z M 40.421875 -3.4375 "/></g></g></g><g fill="#ffffff" fill-opacity="1"><g transform="translate(924.595003, 191.307881)"><g/></g></g><g fill="#ffffff" fill-opacity="1"><g transform="translate(952.758323, 191.307881)"><g><path d="M 66.109375 1.1875 L 55.6875 -9.5625 C 49.3125 -2.757812 40.925781 0.640625 30.53125 0.640625 C 25.65625 0.640625 21.300781 -0.160156 17.46875 -1.765625 C 13.632812 -3.378906 10.640625 -5.640625 8.484375 -8.546875 C 6.335938 -11.453125 5.265625 -14.765625 5.265625 -18.484375 C 5.265625 -23.003906 6.695312 -27.054688 9.5625 -30.640625 C 12.4375 -34.222656 17.3125 -37.984375 24.1875 -41.921875 C 20.601562 -45.648438 18.128906 -48.820312 16.765625 -51.4375 C 15.410156 -54.050781 14.734375 -56.828125 14.734375 -59.765625 C 14.734375 -64.566406 16.453125 -68.4375 19.890625 -71.375 C 23.328125 -74.3125 27.945312 -75.78125 33.75 -75.78125 C 39.125 -75.78125 43.390625 -74.453125 46.546875 -71.796875 C 49.703125 -69.148438 51.28125 -65.5 51.28125 -60.84375 C 51.28125 -57.113281 50.023438 -53.757812 47.515625 -50.78125 C 45.003906 -47.8125 40.664062 -44.535156 34.5 -40.953125 L 55.140625 -19.671875 C 57.441406 -23.753906 59.128906 -28.59375 60.203125 -34.1875 L 66.4375 -32.25 C 65.070312 -25.507812 62.847656 -19.738281 59.765625 -14.9375 L 70.515625 -3.875 Z M 33.75 -70.09375 C 30.03125 -70.09375 27.113281 -69.160156 25 -67.296875 C 22.882812 -65.429688 21.828125 -62.957031 21.828125 -59.875 C 21.828125 -57.65625 22.398438 -55.539062 23.546875 -53.53125 C 24.691406 -51.53125 26.945312 -48.804688 30.3125 -45.359375 C 35.757812 -48.515625 39.519531 -51.203125 41.59375 -53.421875 C 43.675781 -55.648438 44.71875 -58.085938 44.71875 -60.734375 C 44.71875 -63.597656 43.75 -65.875 41.8125 -67.5625 C 39.882812 -69.25 37.195312 -70.09375 33.75 -70.09375 Z M 30.953125 -5.703125 C 39.273438 -5.703125 46.015625 -8.53125 51.171875 -14.1875 L 28.484375 -37.515625 C 22.535156 -34.148438 18.429688 -31.101562 16.171875 -28.375 C 13.921875 -25.65625 12.796875 -22.613281 12.796875 -19.25 C 12.796875 -15.15625 14.460938 -11.875 17.796875 -9.40625 C 21.128906 -6.9375 25.515625 -5.703125 30.953125 -5.703125 Z M 30.953125 -5.703125 "/></g></g></g><g fill="#ffffff" fill-opacity="1"><g transform="translate(1024.671482, 191.307881)"><g/></g></g><g fill="#ffffff" fill-opacity="1"><g transform="translate(1052.834763, 191.307881)"><g><path d="M 33 0.640625 C 27.414062 0.640625 22.0625 -0.253906 16.9375 -2.046875 C 11.8125 -3.835938 7.847656 -6.203125 5.046875 -9.140625 L 8.171875 -15.265625 C 10.890625 -12.546875 14.503906 -10.34375 19.015625 -8.65625 C 23.535156 -6.96875 28.195312 -6.125 33 -6.125 C 39.738281 -6.125 44.789062 -7.359375 48.15625 -9.828125 C 51.53125 -12.304688 53.21875 -15.515625 53.21875 -19.453125 C 53.21875 -22.460938 52.300781 -24.863281 50.46875 -26.65625 C 48.644531 -28.445312 46.40625 -29.828125 43.75 -30.796875 C 41.101562 -31.765625 37.414062 -32.820312 32.6875 -33.96875 C 27.019531 -35.40625 22.5 -36.785156 19.125 -38.109375 C 15.757812 -39.429688 12.875 -41.453125 10.46875 -44.171875 C 8.070312 -46.898438 6.875 -50.59375 6.875 -55.25 C 6.875 -59.050781 7.878906 -62.507812 9.890625 -65.625 C 11.898438 -68.75 14.984375 -71.238281 19.140625 -73.09375 C 23.296875 -74.957031 28.453125 -75.890625 34.609375 -75.890625 C 38.910156 -75.890625 43.117188 -75.296875 47.234375 -74.109375 C 51.359375 -72.929688 54.925781 -71.304688 57.9375 -69.234375 L 55.25 -62.890625 C 52.101562 -64.960938 48.738281 -66.519531 45.15625 -67.5625 C 41.570312 -68.601562 38.054688 -69.125 34.609375 -69.125 C 28.015625 -69.125 23.050781 -67.847656 19.71875 -65.296875 C 16.394531 -62.753906 14.734375 -59.476562 14.734375 -55.46875 C 14.734375 -52.457031 15.644531 -50.035156 17.46875 -48.203125 C 19.289062 -46.378906 21.582031 -44.984375 24.34375 -44.015625 C 27.101562 -43.046875 30.8125 -41.988281 35.46875 -40.84375 C 40.988281 -39.488281 45.453125 -38.144531 48.859375 -36.8125 C 52.265625 -35.488281 55.148438 -33.484375 57.515625 -30.796875 C 59.878906 -28.109375 61.0625 -24.472656 61.0625 -19.890625 C 61.0625 -16.085938 60.039062 -12.628906 58 -9.515625 C 55.957031 -6.398438 52.820312 -3.925781 48.59375 -2.09375 C 44.363281 -0.269531 39.164062 0.640625 33 0.640625 Z M 33 0.640625 "/></g></g></g><g fill="#ffffff" fill-opacity="1"><g transform="translate(1118.943275, 191.307881)"><g><path d="M 39.78125 -56.96875 C 45.082031 -56.96875 49.878906 -55.765625 54.171875 -53.359375 C 58.472656 -50.960938 61.84375 -47.578125 64.28125 -43.203125 C 66.71875 -38.835938 67.9375 -33.859375 67.9375 -28.265625 C 67.9375 -22.609375 66.71875 -17.59375 64.28125 -13.21875 C 61.84375 -8.851562 58.492188 -5.46875 54.234375 -3.0625 C 49.972656 -0.664062 45.15625 0.53125 39.78125 0.53125 C 35.1875 0.53125 31.046875 -0.414062 27.359375 -2.3125 C 23.671875 -4.207031 20.644531 -6.984375 18.28125 -10.640625 L 18.28125 20.859375 L 10.640625 20.859375 L 10.640625 -56.546875 L 17.953125 -56.546875 L 17.953125 -45.359375 C 20.242188 -49.085938 23.269531 -51.953125 27.03125 -53.953125 C 30.800781 -55.960938 35.050781 -56.96875 39.78125 -56.96875 Z M 39.234375 -6.234375 C 43.179688 -6.234375 46.765625 -7.144531 49.984375 -8.96875 C 53.210938 -10.800781 55.738281 -13.398438 57.5625 -16.765625 C 59.394531 -20.140625 60.3125 -23.972656 60.3125 -28.265625 C 60.3125 -32.566406 59.394531 -36.382812 57.5625 -39.71875 C 55.738281 -43.050781 53.210938 -45.648438 49.984375 -47.515625 C 46.765625 -49.378906 43.179688 -50.3125 39.234375 -50.3125 C 35.222656 -50.3125 31.625 -49.378906 28.4375 -47.515625 C 25.25 -45.648438 22.738281 -43.050781 20.90625 -39.71875 C 19.082031 -36.382812 18.171875 -32.566406 18.171875 -28.265625 C 18.171875 -23.972656 19.082031 -20.140625 20.90625 -16.765625 C 22.738281 -13.398438 25.25 -10.800781 28.4375 -8.96875 C 31.625 -7.144531 35.222656 -6.234375 39.234375 -6.234375 Z M 39.234375 -6.234375 "/></g></g></g><g fill="#ffffff" fill-opacity="1"><g transform="translate(1191.823902, 191.307881)"><g><path d="M 59.875 -25.90625 L 12.578125 -25.90625 C 13.003906 -20.03125 15.257812 -15.28125 19.34375 -11.65625 C 23.4375 -8.039062 28.597656 -6.234375 34.828125 -6.234375 C 38.335938 -6.234375 41.5625 -6.859375 44.5 -8.109375 C 47.4375 -9.367188 49.984375 -11.21875 52.140625 -13.65625 L 56.4375 -8.703125 C 53.925781 -5.691406 50.789062 -3.398438 47.03125 -1.828125 C 43.269531 -0.253906 39.128906 0.53125 34.609375 0.53125 C 28.804688 0.53125 23.664062 -0.703125 19.1875 -3.171875 C 14.707031 -5.640625 11.210938 -9.0625 8.703125 -13.4375 C 6.191406 -17.8125 4.9375 -22.753906 4.9375 -28.265625 C 4.9375 -33.785156 6.132812 -38.734375 8.53125 -43.109375 C 10.9375 -47.484375 14.234375 -50.882812 18.421875 -53.3125 C 22.617188 -55.75 27.335938 -56.96875 32.578125 -56.96875 C 37.804688 -56.96875 42.5 -55.75 46.65625 -53.3125 C 50.8125 -50.882812 54.070312 -47.5 56.4375 -43.15625 C 58.800781 -38.820312 59.984375 -33.859375 59.984375 -28.265625 Z M 32.578125 -50.421875 C 27.128906 -50.421875 22.554688 -48.679688 18.859375 -45.203125 C 15.171875 -41.722656 13.078125 -37.191406 12.578125 -31.609375 L 52.671875 -31.609375 C 52.171875 -37.191406 50.070312 -41.722656 46.375 -45.203125 C 42.6875 -48.679688 38.085938 -50.421875 32.578125 -50.421875 Z M 32.578125 -50.421875 "/></g></g></g><g fill="#ffffff" fill-opacity="1"><g transform="translate(1256.749966, 191.307881)"><g><path d="M 59.875 -25.90625 L 12.578125 -25.90625 C 13.003906 -20.03125 15.257812 -15.28125 19.34375 -11.65625 C 23.4375 -8.039062 28.597656 -6.234375 34.828125 -6.234375 C 38.335938 -6.234375 41.5625 -6.859375 44.5 -8.109375 C 47.4375 -9.367188 49.984375 -11.21875 52.140625 -13.65625 L 56.4375 -8.703125 C 53.925781 -5.691406 50.789062 -3.398438 47.03125 -1.828125 C 43.269531 -0.253906 39.128906 0.53125 34.609375 0.53125 C 28.804688 0.53125 23.664062 -0.703125 19.1875 -3.171875 C 14.707031 -5.640625 11.210938 -9.0625 8.703125 -13.4375 C 6.191406 -17.8125 4.9375 -22.753906 4.9375 -28.265625 C 4.9375 -33.785156 6.132812 -38.734375 8.53125 -43.109375 C 10.9375 -47.484375 14.234375 -50.882812 18.421875 -53.3125 C 22.617188 -55.75 27.335938 -56.96875 32.578125 -56.96875 C 37.804688 -56.96875 42.5 -55.75 46.65625 -53.3125 C 50.8125 -50.882812 54.070312 -47.5 56.4375 -43.15625 C 58.800781 -38.820312 59.984375 -33.859375 59.984375 -28.265625 Z M 32.578125 -50.421875 C 27.128906 -50.421875 22.554688 -48.679688 18.859375 -45.203125 C 15.171875 -41.722656 13.078125 -37.191406 12.578125 -31.609375 L 52.671875 -31.609375 C 52.171875 -37.191406 50.070312 -41.722656 46.375 -45.203125 C 42.6875 -48.679688 38.085938 -50.421875 32.578125 -50.421875 Z M 32.578125 -50.421875 "/></g></g></g><g fill="#ffffff" fill-opacity="1"><g transform="translate(1321.67603, 191.307881)"><g><path d="M 34.078125 0.53125 C 28.484375 0.53125 23.484375 -0.679688 19.078125 -3.109375 C 14.671875 -5.546875 11.210938 -8.96875 8.703125 -13.375 C 6.191406 -17.789062 4.9375 -22.753906 4.9375 -28.265625 C 4.9375 -33.785156 6.191406 -38.734375 8.703125 -43.109375 C 11.210938 -47.484375 14.671875 -50.882812 19.078125 -53.3125 C 23.484375 -55.75 28.484375 -56.96875 34.078125 -56.96875 C 38.953125 -56.96875 43.304688 -56.019531 47.140625 -54.125 C 50.972656 -52.226562 54 -49.453125 56.21875 -45.796875 L 50.53125 -41.921875 C 48.664062 -44.722656 46.296875 -46.820312 43.421875 -48.21875 C 40.554688 -49.613281 37.441406 -50.3125 34.078125 -50.3125 C 29.992188 -50.3125 26.320312 -49.394531 23.0625 -47.5625 C 19.800781 -45.738281 17.253906 -43.140625 15.421875 -39.765625 C 13.597656 -36.398438 12.6875 -32.566406 12.6875 -28.265625 C 12.6875 -23.898438 13.597656 -20.050781 15.421875 -16.71875 C 17.253906 -13.382812 19.800781 -10.800781 23.0625 -8.96875 C 26.320312 -7.144531 29.992188 -6.234375 34.078125 -6.234375 C 37.441406 -6.234375 40.554688 -6.910156 43.421875 -8.265625 C 46.296875 -9.628906 48.664062 -11.710938 50.53125 -14.515625 L 56.21875 -10.640625 C 54 -6.984375 50.953125 -4.207031 47.078125 -2.3125 C 43.210938 -0.414062 38.878906 0.53125 34.078125 0.53125 Z M 34.078125 0.53125 "/></g></g></g><g fill="#ffffff" fill-opacity="1"><g transform="translate(1382.194873, 191.307881)"><g><path d="M 39.453125 -56.96875 C 46.546875 -56.96875 52.1875 -54.90625 56.375 -50.78125 C 60.570312 -46.664062 62.671875 -40.664062 62.671875 -32.78125 L 62.671875 0 L 55.046875 0 L 55.046875 -32.03125 C 55.046875 -37.90625 53.570312 -42.382812 50.625 -45.46875 C 47.6875 -48.550781 43.5 -50.09375 38.0625 -50.09375 C 31.96875 -50.09375 27.144531 -48.28125 23.59375 -44.65625 C 20.050781 -41.039062 18.28125 -36.046875 18.28125 -29.671875 L 18.28125 0 L 10.640625 0 L 10.640625 -79.765625 L 18.28125 -79.765625 L 18.28125 -46.65625 C 20.351562 -49.945312 23.21875 -52.488281 26.875 -54.28125 C 30.53125 -56.070312 34.722656 -56.96875 39.453125 -56.96875 Z M 39.453125 -56.96875 "/></g></g></g><g fill="#ffffff" fill-opacity="1"><g transform="translate(554.100606, 332.108339)"><g><path d="M 27.4375 -68.359375 L 0.484375 -68.359375 L 0.484375 -84.234375 L 73.890625 -84.234375 L 73.890625 -68.359375 L 46.9375 -68.359375 L 46.9375 0 L 27.4375 0 Z M 27.4375 -68.359375 "/></g></g></g><g fill="#ffffff" fill-opacity="1"><g transform="translate(632.678936, 332.108339)"><g><path d="M 63.65625 0 L 47.421875 -23.46875 L 29.484375 -23.46875 L 29.484375 0 L 9.984375 0 L 9.984375 -84.234375 L 46.453125 -84.234375 C 53.910156 -84.234375 60.382812 -82.988281 65.875 -80.5 C 71.375 -78.019531 75.609375 -74.492188 78.578125 -69.921875 C 81.546875 -65.347656 83.03125 -59.929688 83.03125 -53.671875 C 83.03125 -47.410156 81.523438 -42.015625 78.515625 -37.484375 C 75.515625 -32.953125 71.242188 -29.484375 65.703125 -27.078125 L 84.609375 0 Z M 63.296875 -53.671875 C 63.296875 -58.410156 61.769531 -62.039062 58.71875 -64.5625 C 55.675781 -67.09375 51.226562 -68.359375 45.375 -68.359375 L 29.484375 -68.359375 L 29.484375 -38.984375 L 45.375 -38.984375 C 51.226562 -38.984375 55.675781 -40.265625 58.71875 -42.828125 C 61.769531 -45.398438 63.296875 -49.015625 63.296875 -53.671875 Z M 63.296875 -53.671875 "/></g></g></g><g fill="#ffffff" fill-opacity="1"><g transform="translate(725.336337, 332.108339)"><g><path d="M 65.46875 -18.046875 L 26.359375 -18.046875 L 18.890625 0 L -1.078125 0 L 36.46875 -84.234375 L 55.71875 -84.234375 L 93.390625 0 L 72.921875 0 Z M 59.328125 -32.859375 L 45.96875 -65.109375 L 32.609375 -32.859375 Z M 59.328125 -32.859375 "/></g></g></g><g fill="#ffffff" fill-opacity="1"><g transform="translate(821.724082, 332.108339)"><g><path d="M 87.25 -84.234375 L 87.25 0 L 71.25 0 L 29.25 -51.140625 L 29.25 0 L 9.984375 0 L 9.984375 -84.234375 L 26.109375 -84.234375 L 68 -33.09375 L 68 -84.234375 Z M 87.25 -84.234375 "/></g></g></g><g fill="#ffffff" fill-opacity="1"><g transform="translate(923.165834, 332.108339)"><g><path d="M 37.671875 1.4375 C 31.003906 1.4375 24.5625 0.535156 18.34375 -1.265625 C 12.132812 -3.066406 7.144531 -5.410156 3.375 -8.296875 L 9.984375 -22.984375 C 13.597656 -20.335938 17.890625 -18.210938 22.859375 -16.609375 C 27.835938 -15.003906 32.8125 -14.203125 37.78125 -14.203125 C 43.320312 -14.203125 47.414062 -15.023438 50.0625 -16.671875 C 52.707031 -18.316406 54.03125 -20.5 54.03125 -23.21875 C 54.03125 -25.226562 53.25 -26.894531 51.6875 -28.21875 C 50.125 -29.539062 48.117188 -30.601562 45.671875 -31.40625 C 43.222656 -32.207031 39.910156 -33.09375 35.734375 -34.0625 C 29.316406 -35.582031 24.0625 -37.101562 19.96875 -38.625 C 15.882812 -40.15625 12.375 -42.601562 9.4375 -45.96875 C 6.507812 -49.34375 5.046875 -53.835938 5.046875 -59.453125 C 5.046875 -64.347656 6.367188 -68.78125 9.015625 -72.75 C 11.671875 -76.71875 15.664062 -79.863281 21 -82.1875 C 26.332031 -84.519531 32.851562 -85.6875 40.5625 -85.6875 C 45.9375 -85.6875 51.1875 -85.039062 56.3125 -83.75 C 61.445312 -82.46875 65.941406 -80.625 69.796875 -78.21875 L 63.78125 -63.421875 C 56 -67.835938 48.21875 -70.046875 40.4375 -70.046875 C 34.976562 -70.046875 30.945312 -69.160156 28.34375 -67.390625 C 25.738281 -65.628906 24.4375 -63.300781 24.4375 -60.40625 C 24.4375 -57.519531 25.9375 -55.375 28.9375 -53.96875 C 31.945312 -52.570312 36.539062 -51.191406 42.71875 -49.828125 C 49.132812 -48.296875 54.390625 -46.769531 58.484375 -45.25 C 62.578125 -43.726562 66.085938 -41.320312 69.015625 -38.03125 C 71.941406 -34.738281 73.40625 -30.285156 73.40625 -24.671875 C 73.40625 -19.859375 72.0625 -15.460938 69.375 -11.484375 C 66.6875 -7.515625 62.65625 -4.367188 57.28125 -2.046875 C 51.90625 0.273438 45.367188 1.4375 37.671875 1.4375 Z M 37.671875 1.4375 "/></g></g></g><g fill="#ffffff" fill-opacity="1"><g transform="translate(1004.150829, 332.108339)"><g><path d="M 9.984375 -84.234375 L 29.484375 -84.234375 L 29.484375 -15.890625 L 71.71875 -15.890625 L 71.71875 0 L 9.984375 0 Z M 9.984375 -84.234375 "/></g></g></g><g fill="#ffffff" fill-opacity="1"><g transform="translate(1081.044489, 332.108339)"><g><path d="M 65.46875 -18.046875 L 26.359375 -18.046875 L 18.890625 0 L -1.078125 0 L 36.46875 -84.234375 L 55.71875 -84.234375 L 93.390625 0 L 72.921875 0 Z M 59.328125 -32.859375 L 45.96875 -65.109375 L 32.609375 -32.859375 Z M 59.328125 -32.859375 "/></g></g></g><g fill="#ffffff" fill-opacity="1"><g transform="translate(1177.432233, 332.108339)"><g><path d="M 27.4375 -68.359375 L 0.484375 -68.359375 L 0.484375 -84.234375 L 73.890625 -84.234375 L 73.890625 -68.359375 L 46.9375 -68.359375 L 46.9375 0 L 27.4375 0 Z M 27.4375 -68.359375 "/></g></g></g><g fill="#ffffff" fill-opacity="1"><g transform="translate(1256.010549, 332.108339)"><g><path d="M 50.78125 1.4375 C 42.039062 1.4375 34.160156 -0.445312 27.140625 -4.21875 C 20.117188 -7.988281 14.617188 -13.179688 10.640625 -19.796875 C 6.671875 -26.410156 4.6875 -33.851562 4.6875 -42.125 C 4.6875 -50.382812 6.671875 -57.820312 10.640625 -64.4375 C 14.617188 -71.0625 20.117188 -76.257812 27.140625 -80.03125 C 34.160156 -83.800781 42.039062 -85.6875 50.78125 -85.6875 C 59.53125 -85.6875 67.394531 -83.800781 74.375 -80.03125 C 81.351562 -76.257812 86.847656 -71.0625 90.859375 -64.4375 C 94.867188 -57.820312 96.875 -50.382812 96.875 -42.125 C 96.875 -33.851562 94.867188 -26.410156 90.859375 -19.796875 C 86.847656 -13.179688 81.351562 -7.988281 74.375 -4.21875 C 67.394531 -0.445312 59.53125 1.4375 50.78125 1.4375 Z M 50.78125 -15.15625 C 55.757812 -15.15625 60.253906 -16.296875 64.265625 -18.578125 C 68.273438 -20.867188 71.421875 -24.0625 73.703125 -28.15625 C 75.992188 -32.25 77.140625 -36.90625 77.140625 -42.125 C 77.140625 -47.332031 75.992188 -51.984375 73.703125 -56.078125 C 71.421875 -60.171875 68.273438 -63.359375 64.265625 -65.640625 C 60.253906 -67.929688 55.757812 -69.078125 50.78125 -69.078125 C 45.8125 -69.078125 41.320312 -67.929688 37.3125 -65.640625 C 33.300781 -63.359375 30.148438 -60.171875 27.859375 -56.078125 C 25.578125 -51.984375 24.4375 -47.332031 24.4375 -42.125 C 24.4375 -36.90625 25.578125 -32.25 27.859375 -28.15625 C 30.148438 -24.0625 33.300781 -20.867188 37.3125 -18.578125 C 41.320312 -16.296875 45.8125 -15.15625 50.78125 -15.15625 Z M 50.78125 -15.15625 "/></g></g></g><g fill="#ffffff" fill-opacity="1"><g transform="translate(1361.784324, 332.108339)"><g><path d="M 63.65625 0 L 47.421875 -23.46875 L 29.484375 -23.46875 L 29.484375 0 L 9.984375 0 L 9.984375 -84.234375 L 46.453125 -84.234375 C 53.910156 -84.234375 60.382812 -82.988281 65.875 -80.5 C 71.375 -78.019531 75.609375 -74.492188 78.578125 -69.921875 C 81.546875 -65.347656 83.03125 -59.929688 83.03125 -53.671875 C 83.03125 -47.410156 81.523438 -42.015625 78.515625 -37.484375 C 75.515625 -32.953125 71.242188 -29.484375 65.703125 -27.078125 L 84.609375 0 Z M 63.296875 -53.671875 C 63.296875 -58.410156 61.769531 -62.039062 58.71875 -64.5625 C 55.675781 -67.09375 51.226562 -68.359375 45.375 -68.359375 L 29.484375 -68.359375 L 29.484375 -38.984375 L 45.375 -38.984375 C 51.226562 -38.984375 55.675781 -40.265625 58.71875 -42.828125 C 61.769531 -45.398438 63.296875 -49.015625 63.296875 -53.671875 Z M 63.296875 -53.671875 "/></g></g></g><path stroke-linecap="butt" transform="matrix(0.75, 0, 0, 0.75, 549.35804, 209.767834)" fill="none" stroke-linejoin="miter" d="M 0.0017795 10.002264 L 752.87163 10.002264 " stroke="#ff0080" stroke-width="20" stroke-opacity="1" stroke-miterlimit="4"/><path stroke-linecap="butt" transform="matrix(0.75, 0, 0, 0.75, 549.35804, 361.292199)" fill="none" stroke-linejoin="miter" d="M 0.0017795 10.001027 L 1207.522707 10.001027 " stroke="#ff0080" stroke-width="20" stroke-opacity="1" stroke-miterlimit="4"/><path stroke-linecap="butt" transform="matrix(0.75, -0.000000000000000093, 0.000000000000000093, 0.75, 1150.86661, 210.142834)" fill="none" stroke-linejoin="miter" d="M 0.000770631 9.502264 L 405.511219 9.502264 " stroke="#ff0080" stroke-width="19" stroke-opacity="1" stroke-miterlimit="4"/></svg>