<svg xmlns="http://www.w3.org/2000/svg" xmlns:xlink="http://www.w3.org/1999/xlink" width="200" zoomAndPan="magnify" viewBox="0 0 150 149.999998" height="200" preserveAspectRatio="xMidYMid meet" version="1.0"><defs><g/><clipPath id="196b7ee794"><path d="M 0 6.683594 L 150 6.683594 L 150 143.183594 L 0 143.183594 Z M 0 6.683594 " clip-rule="nonzero"/></clipPath></defs><g clip-path="url(#196b7ee794)"><path fill="#ffffff" d="M 118.421875 64.230469 L 150 143.179688 L 134.535156 143.179688 L 125.914062 121.648438 L 96.558594 121.648438 L 87.953125 143.179688 L 72.496094 143.179688 L 104.066406 64.230469 Z M 57.417969 6.8125 L 57.417969 21.167969 L 100.476562 21.167969 L 100.476562 35.523438 L 86.355469 35.523438 C 83.585938 43.855469 80.015625 51.828125 75.640625 59.441406 C 71.265625 67.054688 66.175781 74.15625 60.375 80.746094 C 65.5625 85.375 71.152344 89.460938 77.140625 92.996094 L 71.75 106.476562 C 64.015625 102.089844 56.84375 96.917969 50.238281 90.964844 C 43.828125 96.765625 36.871094 101.816406 29.367188 106.109375 C 21.863281 110.402344 13.984375 113.84375 5.734375 116.429688 L 1.886719 102.585938 C 8.957031 100.332031 15.710938 97.363281 22.15625 93.683594 C 28.597656 90.003906 34.585938 85.695312 40.121094 80.753906 C 31.886719 71.429688 25.132812 61.140625 19.859375 49.875 L 35.933594 49.875 C 39.949219 57.28125 44.714844 64.164062 50.238281 70.523438 C 59.28125 60.101562 66.242188 48.4375 71.125 35.53125 L 0 35.523438 L 0 21.167969 L 43.0625 21.167969 L 43.0625 6.8125 Z M 111.242188 84.9375 L 102.292969 107.292969 L 120.179688 107.292969 Z M 111.242188 84.9375 " fill-opacity="1" fill-rule="nonzero"/></g><g fill="#ffffff" fill-opacity="1"><g transform="translate(144.508924, 153.288013)"><g><path d="M 3.671875 0 L 3.15625 0 L 2.78125 -1.125 L 1.046875 -1.125 L 0.671875 0 L 0.15625 0 L 1.59375 -4.078125 L 2.25 -4.078125 Z M 1.875 -3.59375 L 1.171875 -1.515625 L 2.640625 -1.515625 L 1.953125 -3.59375 Z M 1.875 -3.59375 "/></g></g></g></svg>